<?xml version="1.0" encoding="UTF-8"?>
<!-- Generator: Adobe Illustrator 16.0.0, SVG Export Plug-In . SVG Version: 6.00 Build 0)  -->
<svg xmlns="http://www.w3.org/2000/svg" 
	xmlns:xlink="http://www.w3.org/1999/xlink" id="Layer_1" x="0px" y="0px" width="243px" height="55.924px" viewBox="0 0 243 55.924" xml:space="preserve">
	<g>

		<g>
			<path fill="#FFFFFF" d="M20,55V35H0.238C0.238,45.61,9,55,20,55z"></path>
			<path fill="#FFFFFF" d="M20,20.489V28H0V0C11.429,0,20,9.405,20,20.489z"></path>
			<path fill="#FFFFFF" d="M34.303,55H27V35h28C55,46,45.5,55,34.303,55z"></path>
		</g>
		<g>
			<path fill="#FFFFFF" d="M112.821,31.967c0-6.814-5.122-11.049-13.367-11.049c-10.032,0-16.021,6.526-16.021,17.455     c0,10.93,6.091,17.454,16.295,17.454c2.277,0,4.633-0.3,7.004-0.894l3.14-0.817c0.592-0.169,0.858-0.636,0.692-1.214     l-1.364-5.115c-0.168-0.587-0.663-0.852-1.21-0.693l-3.015,0.756c-1.278,0.426-3.216,0.67-5.316,0.67     c-3.973,0-6.698-1.99-7.514-5.473l10.476-1.6C109.484,40.416,112.821,37.315,112.821,31.967z M99.319,28.158     c3.598,0,5.58,1.403,5.58,3.946c0,1.633-1.18,2.663-3.501,3.062l-9.952,1.59C91.75,31.084,94.73,28.158,99.319,28.158z"></path>
			<path fill="#FFFFFF" d="M136.317,48.967c-0.222-0.52-0.829-0.967-1.424-0.967H127V10.875c0-0.593-0.219-0.875-0.812-0.875h-7.203     c-0.594,0-0.984,0.33-0.984,0.922v40.667c0,2.575,2.057,3.411,3.625,3.411h15.639c0.457,0,1.006-0.086,1.273-0.49     c0.221-0.332,0.166-0.756,0.041-1.051L136.317,48.967z"></path>
			<path fill="#FFFFFF" d="M154.521,20.958c-2.716,0-4.8,0.328-7.192,1.031l-2.439,0.75c-0.593,0.17-0.784,0.636-0.617,1.219     l1.535,5.001c0.168,0.588,0.639,0.862,1.239,0.69l2.46-0.748c1.574-0.459,3.119-0.674,5.13-0.674     c4.899,0,7.364,1.793,7.364,5.844v0.43c0,0-1.192,0.25-7.947,0.58c-7.951,0.389-12.715,3.73-12.715,10.438     c0,6.576,4.486,10.406,12.002,10.406c1.972,0,3.738-0.302,5.287-0.889c1.648-0.625,2.014-0.832,3.389-2.098     c0.084-0.099,0.417-0.414,0.592-0.46c0.104-0.026,0.404-0.223,0.746,0.22l0.693,1.713c0.285,0.445,0.431,0.59,0.984,0.59h3.5     c0.594,0,0.469-0.291,0.469-0.884V34.148C169,25.865,163.957,20.958,154.521,20.958z M154.027,48.723     c-3.113,0-4.834-0.842-4.834-3.437c0-2.367,1.795-3.155,4.76-3.517c5.391-0.653,8.047-1.225,8.047-1.225     c0,2.486-0.688,5.066-2.058,6.326C158.612,48.095,156.639,48.723,154.027,48.723z"></path>
			<path fill="#FFFFFF" d="M192.574,20.918c-2.653,0-5.336,0.734-8.42,4.212c-0.223,0.204-0.48,0.473-0.704,0.473     c-0.096,0-0.217-0.048-0.416-0.431l-0.593-2.508C182.36,22.09,182.029,22,181.429,22h-4.408c-0.594,0-1.021-0.031-1.021,0.562     v31.555c0,0.593,0.344,0.884,0.938,0.884h6.266c0.594,0,0.797-0.291,0.797-0.884v-14.95c0-2.464,0.457-5.453,1.301-7.055     c1.349-2.562,2.686-3.954,5.721-3.954c2.135,0,3.854,0.884,4.886,2.488c0.812,1.261,1.093,4.001,1.093,5.688v17.782     c0,0.593,0.197,0.884,0.791,0.884h6.168c0.594,0,1.041-0.291,1.041-0.884V34.012C205,25.812,200.516,20.918,192.574,20.918z"></path>
			<path fill="#FFFFFF" d="M241.328,9h-5.859C234.875,9,234,9.159,234,9.751v13.096l-1.621-0.75     c-1.803-0.838-3.56-1.179-6.129-1.179c-9.547,0-15.463,6.664-15.463,17.387c0,10.809,5.57,17.522,14.528,17.522     c3.771,0,7.104-1.484,9.633-4.294c0.351-0.385,0.57-0.445,0.671-0.445c0.177,0,0.281,0.201,0.332,0.356l0.746,2.804     c0.085,0.51,0.451,0.752,1.029,0.752h4.021c0.594,0,1.252-0.291,1.252-0.884V9.656C243,9.064,241.921,9,241.328,9z M234,30.194     v8.521c0,6.049-2.836,9.805-7.538,9.805c-4.901,0-7.785-3.818-7.785-10.217c-0.037-3.496,0.89-6.276,2.637-8.045     c1.38-1.393,3.214-2.1,5.43-2.1c2.027,0,4.48,0.779,5.415,1.139C233.094,29.656,234,30.194,234,30.194z"></path>
		</g>

	</g>
</svg>
