<?xml version="1.0" encoding="UTF-8"?>
<!-- Generator: Adobe Illustrator 16.0.0, SVG Export Plug-In . SVG Version: 6.00 Build 0)  -->
<svg xmlns="http://www.w3.org/2000/svg" 
	xmlns:xlink="http://www.w3.org/1999/xlink" id="Layer_1" x="0px" y="0px" width="176.413px" height="35.147px" viewBox="0 0 176.413 35.147" xml:space="preserve">
	<g id="g313_9_">
		<g id="g231_9_">
			<path id="path29_9_" fill="#FFFFFF" d="M26.168,2.317c-0.098-0.064-0.193-0.096-0.29-0.16c0.063,0.031,0.128,0.064,0.192,0.096    C26.07,2.317,26.104,2.317,26.168,2.317z"></path>
			<path id="path54_9_" fill="#FFFFFF" d="M7.66,3.025c6.855-2.607,13.68-2.542,18.378-0.74c-0.063-0.032-0.128-0.064-0.192-0.097    c-0.482-0.257-0.966-0.514-1.448-0.708c-0.128-0.064-0.29-0.128-0.419-0.193c-0.579-0.225-1.158-0.418-1.77-0.611    c-0.129-0.032-0.29-0.064-0.42-0.097c-0.611-0.161-1.223-0.29-1.865-0.386c-0.064,0-0.129-0.032-0.193-0.032    C18.99,0.064,18.25,0,17.478,0C13.84,0,10.461,1.126,7.66,3.025z"></path>
			<path id="path79_9_" fill="#FFFFFF" d="M32.733,8.916c0.063,0.161,0.128,0.354,0.193,0.547c1.577,4.505,1.642,10.782-0.612,17.187    c-0.096,0.257-0.16,0.515-0.256,0.772c1.898-2.801,3.024-6.18,3.024-9.816C35.051,14.42,34.214,11.491,32.733,8.916z"></path>
			<path id="path104_9_" fill="#FFFFFF" d="M12.938,22.177C12.938,22.145,12.938,22.145,12.938,22.177    c-0.032-0.032-0.032-0.032-0.032-0.032c-2.671-2.672-7.562-2.285-11.587,0.708c-0.064,0.031-0.097,0.064-0.161,0.097    c0,0-0.289,0.226-0.193,0.579c0.033,0.032,0.064,0.129,0.098,0.193c3.347-2.639,7.789-2.801,10.396-0.193l0.032,0.032l0.033,0.032    c2.606,2.607,2.445,7.016-0.162,10.363l-0.031,0.033c0.063,0.032,0.16,0.063,0.225,0.063c0.033,0,0.097,0,0.129,0    c0.258,0,0.449-0.192,0.449-0.192c0.034-0.064,0.065-0.097,0.098-0.161C15.225,29.708,15.643,24.849,12.938,22.177z"></path>
			<path id="path129_9_" fill="#FFFFFF" d="M19.055,16.062C19.055,16.062,19.055,16.028,19.055,16.062    c-0.032-0.033-0.032-0.033-0.032-0.033c-3.992-4.022-11.845-2.864-18.733,2.286C0.097,18.442,0,18.701,0,18.925    c0,0.096,0.031,0.226,0.031,0.322c6.084-4.602,13.357-5.375,17.252-1.479c0,0,0,0,0.033,0.032c0,0,0,0,0.031,0.032    c3.863,3.863,3.123,11.104-1.416,17.156c-0.032,0.032-0.032,0.063-0.063,0.096c0.097,0,0.226,0.032,0.321,0.032    c0.129,0,0.258-0.032,0.387-0.064c0.096-0.031,0.192-0.097,0.257-0.192C21.919,27.873,23.045,20.053,19.055,16.062z"></path>
			<path id="path154_9_" fill="#FFFFFF" d="M24.43,10.686L24.43,10.686c-0.032-0.032-0.032-0.032-0.032-0.032    c-4.893-4.892-14.42-3.636-23.464,2.318c-0.033,0.032-0.064,0.032-0.098,0.064c-0.418,0.258-0.482,0.644-0.482,0.644    c-0.064,0.258-0.096,0.516-0.16,0.773c8.367-5.666,17.509-6.727,22.305-1.931c0,0,0,0,0.032,0.032c0,0,0,0,0.032,0.032    c4.764,4.764,3.766,13.84-1.835,22.145c-0.032,0.064-0.064,0.096-0.097,0.161c0.258-0.032,0.516-0.097,0.773-0.161    c0,0,0.225-0.033,0.449-0.258c0.065-0.064,0.13-0.129,0.162-0.193c0.031-0.032,0.031-0.064,0.064-0.096    C28.066,25.105,29.289,15.546,24.43,10.686z"></path>
			<path id="path179_9_" fill="#FFFFFF" d="M7.402,31.929c0.033,0,0.033,0.032,0.033,0.032L7.402,31.929L7.402,31.929z"></path>
			<path id="path204_9_" fill="#FFFFFF" d="M7.95,31.833C7.95,31.8,7.95,31.833,7.95,31.833c0.482-1.03,0.097-2.512-1.03-3.638    l-0.031-0.032c-1.128-1.127-2.607-1.513-3.639-1.03c-0.031,0,0,0-0.031,0c-0.321,0.161-0.193,0.419-0.193,0.419    c0.032,0.064,0.032,0.097,0.097,0.128c0,0,0.032,0,0.032-0.031c0.482-0.257,1.705,0.321,2.768,1.416l0.033,0.032    c1.094,1.094,1.705,2.285,1.416,2.768c0,0,0,0,0,0.032l0.031,0.032c0.033,0.032,0.064,0.032,0.098,0.064    C7.531,32.025,7.788,32.154,7.95,31.833z"></path>
			<path id="path229_9_" fill="#FFFFFF" d="M32.637,15.32c0-0.096,0-0.226,0-0.321c0-0.129,0-0.289-0.031-0.419    c0-0.128-0.033-0.225-0.033-0.321c0-0.13-0.032-0.258-0.032-0.387c0-0.097-0.031-0.226-0.031-0.321    c-0.032-0.129-0.032-0.258-0.065-0.386c-0.032-0.097-0.032-0.225-0.064-0.322c-0.031-0.129-0.031-0.258-0.064-0.387    c-0.031-0.097-0.031-0.193-0.064-0.322c-0.031-0.128-0.063-0.257-0.096-0.386c-0.032-0.097-0.032-0.193-0.064-0.29    c-0.031-0.129-0.097-0.29-0.129-0.418c-0.033-0.064-0.033-0.161-0.064-0.226c-0.064-0.225-0.129-0.418-0.225-0.644    c-0.033-0.032-0.033-0.097-0.064-0.128c-0.064-0.161-0.129-0.322-0.194-0.483c-0.032-0.064-0.063-0.161-0.097-0.226    c-0.063-0.129-0.128-0.257-0.193-0.386c-0.031-0.064-0.096-0.162-0.128-0.225c-0.064-0.129-0.129-0.226-0.192-0.354    c-0.033-0.065-0.098-0.161-0.129-0.226c-0.064-0.097-0.129-0.226-0.226-0.322c-0.065-0.064-0.097-0.161-0.161-0.225    c-0.064-0.097-0.161-0.225-0.227-0.322c-0.062-0.064-0.096-0.129-0.16-0.193c-0.096-0.129-0.192-0.226-0.289-0.354    c-0.032-0.065-0.098-0.098-0.129-0.161c-0.16-0.162-0.29-0.322-0.451-0.483c0,0,0,0-0.031-0.032c0,0,0,0-0.033-0.031    c-0.16-0.161-0.32-0.29-0.482-0.451c-0.064-0.033-0.096-0.097-0.16-0.13c-0.098-0.096-0.226-0.193-0.354-0.289    c-0.064-0.064-0.128-0.097-0.192-0.161c-0.098-0.064-0.226-0.161-0.322-0.226c-0.064-0.064-0.161-0.096-0.227-0.161    c-0.096-0.064-0.225-0.128-0.32-0.226c-0.064-0.032-0.161-0.096-0.227-0.128c-0.128-0.064-0.225-0.129-0.354-0.193    c-0.064-0.032-0.16-0.097-0.225-0.129c-0.129-0.064-0.258-0.129-0.388-0.192c-0.063-0.033-0.16-0.064-0.225-0.098    c-0.161-0.064-0.322-0.129-0.483-0.193c-0.031-0.032-0.096-0.032-0.128-0.063c-0.194-0.064-0.419-0.161-0.644-0.226    c-0.064-0.032-0.161-0.032-0.226-0.064c-0.097-0.032-0.226-0.064-0.386-0.097c-0.098-0.032-0.193-0.064-0.29-0.064    c-0.128-0.032-0.258-0.064-0.386-0.096c-0.097-0.032-0.193-0.032-0.322-0.064s-0.258-0.065-0.387-0.065    c-0.097-0.031-0.225-0.031-0.321-0.064c-0.13-0.032-0.258-0.032-0.386-0.064c-0.098,0-0.227-0.033-0.322-0.033    c-0.129,0-0.258-0.031-0.387-0.031c-0.097,0-0.225-0.032-0.321-0.032c-0.128,0-0.29,0-0.419-0.033c-0.097,0-0.225,0-0.322,0    c-0.225,0-0.482,0-0.707,0c-0.129,0-0.258,0-0.354,0c-0.128,0-0.258,0-0.387,0c-0.128,0-0.257,0-0.387,0.033    c-0.128,0-0.257,0-0.385,0.032c-0.13,0-0.29,0.031-0.419,0.031s-0.258,0.033-0.354,0.033c-0.129,0-0.29,0.032-0.419,0.064    c-0.128,0-0.256,0.033-0.354,0.064c-0.16,0.033-0.289,0.033-0.45,0.065c-0.128,0.032-0.226,0.032-0.354,0.064    c-0.161,0.032-0.322,0.064-0.45,0.096c-0.097,0.033-0.226,0.033-0.321,0.064c-0.612,0.129-1.223,0.258-1.836,0.418    c-0.096,0.032-0.192,0.065-0.289,0.065c-0.162,0.031-0.354,0.096-0.515,0.16c-0.097,0.033-0.226,0.065-0.322,0.098    c-0.161,0.063-0.354,0.096-0.515,0.16c-0.097,0.032-0.225,0.064-0.322,0.097c-0.16,0.064-0.354,0.129-0.516,0.161    c-0.096,0.032-0.225,0.064-0.32,0.128C9.623,4.345,9.431,4.41,9.27,4.474C9.173,4.506,9.044,4.571,8.947,4.603    C8.754,4.668,8.594,4.731,8.4,4.828C8.304,4.86,8.207,4.925,8.11,4.956C7.918,5.021,7.725,5.118,7.531,5.214l0,0    C6.309,5.729,5.086,6.341,3.862,7.018c0,0-0.516,0.289-0.837,0.804C2.672,8.144,2.414,8.529,2.188,8.916    c1.771-0.998,3.508-1.835,5.247-2.511C7.627,6.341,7.822,6.244,8.014,6.18C8.078,6.148,8.143,6.116,8.24,6.116    c0.192-0.065,0.386-0.129,0.547-0.193c0.064-0.033,0.16-0.064,0.225-0.064c0.193-0.064,0.387-0.129,0.547-0.193    C9.623,5.633,9.688,5.633,9.752,5.6c0.611-0.192,1.223-0.354,1.836-0.514c0.063,0,0.129-0.032,0.192-0.032    c0.161-0.033,0.353-0.064,0.515-0.129c0.097-0.033,0.16-0.033,0.258-0.064c0.161-0.032,0.322-0.064,0.515-0.097    c0.097,0,0.161-0.032,0.258-0.032c0.16-0.032,0.321-0.063,0.515-0.097c0.064,0,0.129-0.032,0.193-0.032    c0.322-0.031,0.676-0.097,0.997-0.128c0.065,0,0.161-0.033,0.226-0.033c0.162,0,0.29-0.031,0.451-0.031    c0.096,0,0.192,0,0.322-0.033c0.129,0,0.289,0,0.418-0.032c0.096,0,0.225,0,0.321,0c0.13,0,0.259,0,0.387,0s0.225,0,0.354,0    c0.13,0,0.258,0,0.387,0c0.226,0,0.45,0.032,0.644,0.032c0.097,0,0.226,0.033,0.322,0.033c0.129,0,0.258,0.031,0.386,0.031    c0.097,0,0.226,0.033,0.322,0.033c0.128,0.032,0.257,0.032,0.354,0.064c0.096,0.033,0.225,0.033,0.32,0.064    c0.131,0.032,0.259,0.032,0.387,0.065c0.097,0.031,0.193,0.031,0.291,0.063c0.16,0.032,0.321,0.064,0.514,0.129    c0.098,0.032,0.161,0.032,0.258,0.064c0.16,0.064,0.354,0.096,0.516,0.161c0.062,0.032,0.16,0.064,0.225,0.096    c0.129,0.033,0.258,0.097,0.387,0.129c0.097,0.032,0.16,0.065,0.257,0.097c0.13,0.064,0.258,0.096,0.387,0.161    c0.063,0.031,0.161,0.064,0.225,0.096c0.13,0.064,0.29,0.129,0.419,0.193c0.064,0.031,0.097,0.064,0.162,0.096    c0.191,0.097,0.385,0.194,0.547,0.322c0.031,0.032,0.096,0.064,0.128,0.097c0.128,0.097,0.257,0.161,0.386,0.257    c0.064,0.032,0.129,0.098,0.193,0.129c0.129,0.097,0.227,0.161,0.354,0.259c0.063,0.031,0.128,0.096,0.192,0.128    c0.129,0.096,0.227,0.192,0.354,0.29c0.063,0.032,0.097,0.096,0.161,0.129c0.161,0.128,0.322,0.289,0.482,0.45    c0,0,0,0,0.033,0.032c0,0,0,0,0.031,0.031c0.161,0.161,0.289,0.322,0.45,0.483c0.033,0.064,0.097,0.097,0.13,0.161    c0.096,0.097,0.192,0.225,0.289,0.354c0.064,0.063,0.097,0.128,0.129,0.193c0.096,0.096,0.161,0.225,0.258,0.354    c0.031,0.064,0.096,0.128,0.128,0.193c0.097,0.128,0.161,0.257,0.258,0.386c0.032,0.032,0.064,0.097,0.097,0.128    c0.096,0.194,0.225,0.354,0.321,0.548c0.032,0.065,0.065,0.097,0.097,0.161c0.064,0.129,0.129,0.289,0.193,0.418    c0.031,0.064,0.064,0.161,0.097,0.225c0.065,0.129,0.097,0.258,0.161,0.386c0.032,0.097,0.064,0.161,0.096,0.257    c0.064,0.129,0.097,0.258,0.129,0.387c0.033,0.064,0.064,0.16,0.096,0.226c0.065,0.16,0.098,0.354,0.162,0.515    c0.032,0.097,0.032,0.161,0.064,0.257c0.032,0.161,0.096,0.322,0.129,0.515c0.032,0.096,0.032,0.193,0.064,0.289    c0.031,0.129,0.064,0.258,0.064,0.387c0.031,0.097,0.031,0.225,0.064,0.322c0.031,0.129,0.031,0.257,0.064,0.354    c0,0.097,0.031,0.226,0.031,0.322c0,0.128,0.033,0.258,0.033,0.386c0,0.097,0.031,0.226,0.031,0.322    c0,0.226,0.033,0.418,0.033,0.644c0,0.129,0,0.257,0,0.386s0,0.225,0,0.354s0,0.258,0,0.386c0,0.096,0,0.225,0,0.323    c0,0.128,0,0.289-0.033,0.418c0,0.097,0,0.192-0.031,0.321c0,0.162-0.033,0.29-0.033,0.451c0,0.064,0,0.161-0.031,0.225    c-0.033,0.322-0.064,0.645-0.129,0.998c0,0.064-0.033,0.129-0.033,0.193c-0.031,0.161-0.063,0.322-0.096,0.515    c0,0.097-0.033,0.161-0.033,0.257c-0.031,0.162-0.063,0.323-0.096,0.516c-0.032,0.097-0.032,0.162-0.064,0.258    c-0.031,0.16-0.064,0.354-0.128,0.515c0,0.064-0.034,0.129-0.034,0.193c-0.16,0.611-0.32,1.224-0.514,1.835    c-0.033,0.063-0.033,0.129-0.064,0.193c-0.064,0.191-0.129,0.386-0.193,0.547c-0.031,0.064-0.064,0.16-0.064,0.225    c-0.063,0.193-0.129,0.387-0.193,0.547c-0.031,0.065-0.064,0.129-0.064,0.226c-0.064,0.193-0.16,0.387-0.225,0.579    c-0.644,1.642-1.416,3.283-2.35,4.957c-0.064,0.098-0.096,0.226-0.161,0.322c0.386-0.225,0.772-0.45,1.159-0.708    c0.515-0.322,0.805-0.837,0.805-0.837l0,0c0.676-1.223,1.256-2.446,1.803-3.67l0,0c0.097-0.192,0.16-0.385,0.257-0.578    c0.032-0.098,0.097-0.193,0.128-0.291c0.065-0.193,0.129-0.354,0.227-0.547c0.031-0.097,0.096-0.225,0.129-0.321    c0.064-0.161,0.128-0.354,0.192-0.515c0.032-0.098,0.097-0.226,0.13-0.322c0.062-0.161,0.128-0.354,0.16-0.516    c0.032-0.096,0.064-0.225,0.096-0.321c0.064-0.161,0.097-0.354,0.162-0.515c0.031-0.098,0.064-0.226,0.096-0.322    c0.064-0.161,0.098-0.354,0.161-0.516c0.032-0.096,0.064-0.193,0.064-0.289c0.161-0.611,0.322-1.223,0.419-1.834    c0.031-0.098,0.031-0.226,0.064-0.322c0.031-0.161,0.064-0.322,0.096-0.451c0.032-0.129,0.032-0.225,0.064-0.354    c0.033-0.16,0.033-0.29,0.065-0.451c0.031-0.129,0.031-0.257,0.063-0.354c0.033-0.129,0.033-0.29,0.064-0.418    c0-0.128,0.032-0.257,0.032-0.354c0-0.129,0.032-0.29,0.032-0.418c0-0.129,0.032-0.259,0.032-0.387    c0-0.129,0.032-0.258,0.032-0.387c0-0.128,0-0.257,0-0.386s0-0.258,0-0.354C32.637,15.804,32.637,15.546,32.637,15.32z"></path>
		</g>
		<g id="g311_9_">
			<g id="g281_9_">
				<g id="g235_9_">
					<path id="path233_9_" fill="#FFFFFF" d="M54.846,26.683h-6.566v1.062h2.704v7.338h1.126v-7.338h2.703v-1.062H54.846z"></path>
				</g>
				<g id="g239_9_">
					<path id="path237_9_" fill="#FFFFFF" d="M73.674,26.683c-0.611,0-1.19,0.097-1.705,0.322c-0.516,0.225-0.966,0.515-1.319,0.9      c-0.354,0.387-0.644,0.837-0.87,1.352c-0.193,0.516-0.289,1.095-0.289,1.707c0,0.514,0.096,0.997,0.289,1.512      c0.193,0.483,0.451,0.934,0.837,1.32c0.354,0.387,0.805,0.707,1.288,0.966c0.516,0.226,1.094,0.354,1.705,0.354      c0.451,0,0.869-0.064,1.224-0.161c0.354-0.129,0.644-0.258,0.901-0.418c0.257-0.161,0.45-0.322,0.611-0.45      c0.16-0.161,0.258-0.258,0.322-0.354l-0.934-0.74c-0.258,0.354-0.547,0.611-0.869,0.805c-0.354,0.193-0.74,0.29-1.223,0.29      c-0.484,0-0.902-0.097-1.256-0.258s-0.676-0.386-0.934-0.676s-0.45-0.611-0.579-0.998c-0.128-0.386-0.193-0.772-0.193-1.19      c0-0.451,0.065-0.869,0.226-1.288c0.129-0.386,0.354-0.74,0.611-1.029c0.258-0.29,0.58-0.515,0.934-0.708      c0.354-0.162,0.772-0.259,1.223-0.259c0.354,0,0.74,0.065,1.062,0.226c0.354,0.161,0.645,0.387,0.869,0.676l0.9-0.676      c-0.321-0.418-0.74-0.74-1.254-0.933C74.736,26.779,74.221,26.683,73.674,26.683z"></path>
				</g>
				<g id="g243_9_">
					<path id="path241_9_" fill="#FFFFFF" d="M87.934,26.683h-1.095v3.508h-4.152v-3.508h-1.095v8.4h1.095v-3.862h4.152v3.862h1.095      V26.683z"></path>
				</g>
				<g id="g247_9_">
					<path id="path245_9_" fill="#FFFFFF" d="M100.582,26.683h-1.095v6.791h-0.032l-4.538-6.791h-1.286v8.4h1.094v-6.791h0.031      l4.604,6.791h1.255v-8.4H100.582z"></path>
				</g>
				<g id="g251_9_">
					<path id="path249_9_" fill="#FFFFFF" d="M109.947,26.683c-0.61,0-1.158,0.097-1.673,0.322c-0.515,0.225-0.966,0.515-1.319,0.9      c-0.354,0.387-0.644,0.837-0.869,1.32c-0.193,0.516-0.321,1.062-0.321,1.674s0.097,1.158,0.321,1.674      c0.193,0.515,0.482,0.965,0.869,1.318c0.354,0.387,0.805,0.677,1.319,0.902s1.062,0.321,1.673,0.321      c0.611,0,1.16-0.096,1.674-0.321c0.516-0.226,0.967-0.516,1.32-0.902c0.354-0.386,0.645-0.837,0.869-1.318      c0.192-0.516,0.322-1.062,0.322-1.674s-0.097-1.158-0.322-1.674c-0.193-0.516-0.482-0.966-0.869-1.32      c-0.354-0.386-0.805-0.676-1.32-0.9C111.107,26.779,110.559,26.683,109.947,26.683z M109.947,34.053      c-0.45,0-0.868-0.097-1.254-0.257c-0.354-0.16-0.677-0.387-0.967-0.676c-0.257-0.29-0.482-0.612-0.611-0.998      c-0.129-0.387-0.225-0.805-0.225-1.223c0-0.451,0.064-0.838,0.225-1.224c0.129-0.386,0.354-0.74,0.611-0.998      c0.258-0.257,0.58-0.515,0.967-0.676c0.354-0.16,0.771-0.257,1.254-0.257c0.451,0,0.87,0.097,1.256,0.257      c0.387,0.161,0.676,0.387,0.966,0.676c0.257,0.29,0.483,0.612,0.612,0.998c0.128,0.386,0.225,0.805,0.225,1.224      c0,0.45-0.064,0.836-0.225,1.223c-0.129,0.386-0.355,0.74-0.612,0.998c-0.258,0.289-0.579,0.516-0.966,0.676      C110.817,33.989,110.398,34.053,109.947,34.053z"></path>
				</g>
				<g id="g255_9_">
					<path id="path253_9_" fill="#FFFFFF" d="M120.377,26.683h-1.095v8.4h4.763v-1.03h-3.668V26.683z"></path>
				</g>
				<g id="g259_9_">
					<path id="path257_9_" fill="#FFFFFF" d="M132.479,26.683c-0.611,0-1.158,0.097-1.674,0.322c-0.516,0.225-0.966,0.515-1.32,0.9      c-0.354,0.387-0.643,0.837-0.867,1.32c-0.194,0.516-0.322,1.062-0.322,1.674s0.096,1.158,0.322,1.674      c0.191,0.515,0.481,0.965,0.867,1.318c0.354,0.387,0.805,0.677,1.32,0.902s1.062,0.321,1.674,0.321s1.158-0.096,1.674-0.321      c0.515-0.226,0.965-0.516,1.32-0.902c0.353-0.386,0.643-0.837,0.868-1.318c0.193-0.516,0.322-1.062,0.322-1.674      s-0.097-1.158-0.322-1.674c-0.193-0.516-0.481-0.966-0.868-1.32c-0.355-0.386-0.806-0.676-1.32-0.9      C133.637,26.779,133.09,26.683,132.479,26.683z M132.479,34.053c-0.45,0-0.869-0.097-1.256-0.257      c-0.354-0.16-0.676-0.387-0.965-0.676c-0.258-0.29-0.482-0.612-0.611-0.998c-0.129-0.387-0.226-0.805-0.226-1.223      c0-0.451,0.065-0.838,0.226-1.224c0.129-0.386,0.354-0.74,0.611-0.998c0.258-0.257,0.579-0.515,0.965-0.676      c0.355-0.16,0.773-0.257,1.256-0.257c0.45,0,0.869,0.097,1.255,0.257c0.387,0.161,0.677,0.387,0.966,0.676      c0.258,0.29,0.482,0.612,0.611,0.998s0.227,0.805,0.227,1.224c0,0.45-0.064,0.836-0.227,1.223      c-0.129,0.386-0.354,0.74-0.611,0.998c-0.258,0.289-0.579,0.516-0.966,0.676C133.348,33.989,132.929,34.053,132.479,34.053z"></path>
				</g>
				<g id="g263_9_">
					<path id="path261_9_" fill="#FFFFFF" d="M145.515,26.683c-0.612,0-1.159,0.097-1.675,0.322c-0.515,0.225-0.965,0.515-1.319,0.9      c-0.354,0.387-0.644,0.837-0.868,1.32c-0.193,0.516-0.322,1.062-0.322,1.674c0,0.578,0.096,1.094,0.289,1.608      s0.483,0.966,0.838,1.353c0.354,0.386,0.805,0.676,1.352,0.901s1.125,0.354,1.803,0.354c0.256,0,0.514,0,0.771-0.032      c0.29-0.032,0.547-0.063,0.805-0.129c0.258-0.063,0.516-0.129,0.773-0.225c0.257-0.097,0.482-0.193,0.676-0.322v-3.54h-1.095      v0.547l0,0v2.222c-0.226,0.128-0.548,0.225-0.869,0.32c-0.354,0.065-0.709,0.097-1.095,0.097c-0.451,0-0.869-0.097-1.223-0.257      c-0.387-0.16-0.709-0.387-0.998-0.676c-0.29-0.29-0.482-0.612-0.643-0.998c-0.162-0.387-0.227-0.805-0.227-1.255      c0-0.451,0.064-0.837,0.227-1.224c0.128-0.387,0.353-0.74,0.61-0.997c0.258-0.258,0.579-0.515,0.966-0.677      c0.354-0.16,0.773-0.258,1.256-0.258c0.417,0,0.804,0.064,1.158,0.193c0.387,0.129,0.707,0.354,1.062,0.676l0.772-0.836      c-0.322-0.322-0.709-0.58-1.192-0.772C146.865,26.747,146.254,26.683,145.515,26.683L145.515,26.683z"></path>
				</g>
				<g id="g267_9_">
					<path id="path265_9_" fill="#FFFFFF" d="M155.363,26.683h-1.095v8.4h1.095V26.683z"></path>
				</g>
				<g id="g271_9_">
					<path id="path269_9_" fill="#FFFFFF" d="M166.436,26.683h-5.375v8.4h5.375v-1.03h-4.281v-2.671h3.798v-1.03h-3.798V27.68h4.281      V26.683z"></path>
				</g>
				<g id="g275_9_">
					<path id="path273_9_" fill="#FFFFFF" d="M64.855,26.683H59.48v8.4h5.375v-1.03h-4.281v-2.671h3.798v-1.03h-3.798V27.68h4.281      V26.683z"></path>
				</g>
				<g id="g279_9_">
					<path id="path277_9_" fill="#FFFFFF" d="M174.031,26.683c-0.483,0-0.902,0.064-1.255,0.225      c-0.354,0.162-0.612,0.322-0.837,0.547c-0.226,0.226-0.387,0.451-0.483,0.741c-0.097,0.258-0.161,0.515-0.161,0.74      c0,0.516,0.098,0.934,0.289,1.224c0.194,0.289,0.451,0.547,0.742,0.74c0.289,0.193,0.61,0.321,0.965,0.418      c0.354,0.097,0.676,0.193,0.966,0.322c0.29,0.096,0.547,0.257,0.739,0.418c0.194,0.161,0.291,0.387,0.291,0.709      c0,0.225-0.064,0.418-0.161,0.578c-0.098,0.161-0.226,0.291-0.386,0.419c-0.162,0.128-0.323,0.192-0.516,0.258      c-0.193,0.064-0.387,0.096-0.547,0.096c-0.322,0-0.645-0.064-0.934-0.192c-0.29-0.129-0.548-0.354-0.74-0.644l-0.902,0.771      c0.258,0.388,0.645,0.644,1.095,0.838c0.45,0.192,0.933,0.257,1.448,0.257c0.387,0,0.74-0.064,1.096-0.16      c0.354-0.129,0.643-0.291,0.868-0.484c0.257-0.225,0.45-0.481,0.579-0.771c0.161-0.322,0.226-0.644,0.226-1.03      c0-0.482-0.097-0.868-0.29-1.127c-0.193-0.288-0.45-0.481-0.74-0.644c-0.289-0.16-0.611-0.289-0.966-0.385      c-0.354-0.098-0.675-0.194-0.966-0.291c-0.289-0.129-0.547-0.258-0.739-0.45c-0.194-0.193-0.29-0.451-0.29-0.772      c0-0.129,0.032-0.258,0.064-0.386c0.064-0.129,0.129-0.29,0.258-0.387c0.129-0.128,0.289-0.226,0.482-0.29      s0.451-0.128,0.74-0.128c0.322,0,0.611,0.063,0.837,0.192c0.257,0.129,0.45,0.29,0.579,0.516l0.869-0.805      c-0.289-0.354-0.644-0.612-1.062-0.74C174.9,26.714,174.481,26.683,174.031,26.683L174.031,26.683z"></path>
				</g>
			</g>
			<g id="g309_9_">
				<g id="g285_9_">
					<path id="path283_9_" fill="#FFFFFF" d="M55.586,0.064c-0.902,0-1.803,0.129-2.672,0.354s-1.641,0.612-2.317,1.095      c-0.676,0.482-1.223,1.094-1.642,1.867c-0.418,0.74-0.611,1.609-0.611,2.64c0,1.158,0.225,2.092,0.708,2.8      c0.45,0.708,1.03,1.255,1.737,1.674c0.676,0.418,1.449,0.739,2.254,0.998c0.805,0.257,1.576,0.482,2.253,0.772      c0.676,0.257,1.255,0.611,1.737,0.999c0.451,0.385,0.709,0.933,0.709,1.673c0,0.451-0.097,0.836-0.322,1.19      c-0.192,0.354-0.482,0.612-0.805,0.838c-0.322,0.225-0.707,0.386-1.126,0.515c-0.419,0.096-0.806,0.161-1.224,0.161      c-0.772,0-1.513-0.193-2.221-0.547c-0.709-0.354-1.256-0.869-1.674-1.513l-2.639,2.575c0.805,0.966,1.803,1.642,2.929,2.061      c1.126,0.418,2.317,0.61,3.54,0.61c0.966,0,1.898-0.128,2.769-0.386c0.868-0.258,1.642-0.644,2.286-1.158      c0.643-0.516,1.189-1.159,1.576-1.964c0.387-0.772,0.579-1.706,0.579-2.769c0-1.158-0.226-2.092-0.708-2.8      c-0.45-0.708-1.029-1.255-1.738-1.706c-0.676-0.418-1.448-0.772-2.252-0.998c-0.805-0.226-1.578-0.483-2.254-0.741      c-0.676-0.257-1.256-0.579-1.738-0.933c-0.45-0.354-0.707-0.869-0.707-1.545c0-0.45,0.096-0.836,0.289-1.158      c0.193-0.323,0.418-0.58,0.74-0.806c0.322-0.192,0.644-0.354,1.029-0.451c0.387-0.096,0.773-0.128,1.191-0.128      c0.676,0,1.352,0.128,1.964,0.387c0.61,0.257,1.126,0.643,1.479,1.19l2.576-2.703c-0.773-0.709-1.674-1.256-2.641-1.545      C57.646,0.226,56.615,0.064,55.586,0.064z"></path>
				</g>
				<g id="g289_9_">
					<path id="path287_9_" fill="#FFFFFF" d="M75.638,0.064c-0.064,0-0.129,0-0.161,0c-1.513,0-2.929,0.258-4.184,0.74      c-1.287,0.482-2.382,1.19-3.283,2.092c-0.934,0.901-1.643,1.996-2.156,3.283c-0.516,1.288-0.773,2.736-0.773,4.313      c0,1.545,0.258,2.929,0.773,4.217c0.514,1.254,1.255,2.35,2.156,3.25c0.934,0.901,2.027,1.609,3.283,2.092      c1.287,0.482,2.671,0.739,4.184,0.739c1.545-0.031,2.961-0.289,4.249-0.805c1.287-0.515,2.382-1.223,3.315-2.124      c0.933-0.9,1.641-1.995,2.188-3.25c0.515-1.255,0.772-2.671,0.772-4.217c0-1.577-0.258-2.993-0.772-4.28      c-0.516-1.288-1.256-2.381-2.188-3.283c-0.934-0.901-2.028-1.609-3.315-2.06C78.47,0.289,77.118,0.064,75.638,0.064      L75.638,0.064z M75.509,17.606c-1.03,0-1.931-0.193-2.769-0.547c-0.836-0.387-1.545-0.87-2.124-1.545      c-0.579-0.644-1.062-1.417-1.384-2.318c-0.321-0.901-0.482-1.867-0.482-2.929c0-0.998,0.161-1.898,0.482-2.769      c0.322-0.869,0.773-1.609,1.384-2.253c0.579-0.644,1.32-1.126,2.124-1.512c0.838-0.354,1.738-0.548,2.769-0.548      s1.964,0.193,2.8,0.548c0.838,0.354,1.545,0.868,2.157,1.512c0.579,0.644,1.062,1.384,1.384,2.253      c0.322,0.87,0.482,1.771,0.482,2.769c0,1.062-0.16,2.027-0.482,2.929c-0.321,0.901-0.771,1.674-1.384,2.318      c-0.58,0.644-1.319,1.158-2.157,1.545C77.473,17.413,76.539,17.606,75.509,17.606z"></path>
				</g>
				<g id="g293_9_">
					<path id="path291_9_" fill="#FFFFFF" d="M99.81,0.064c-1.513,0-2.929,0.258-4.184,0.74c-1.288,0.482-2.383,1.19-3.284,2.092      c-0.933,0.901-1.641,1.996-2.156,3.283c-0.515,1.288-0.771,2.736-0.771,4.313c0,1.545,0.257,2.929,0.771,4.217      c0.516,1.254,1.256,2.35,2.156,3.25c0.934,0.901,2.028,1.609,3.284,2.092c1.287,0.482,2.671,0.739,4.184,0.739      c3.025,0,5.729-0.643,8.175-1.963v-8.464h-3.508v6.211c-0.611,0.354-1.32,0.612-2.092,0.773c-0.805,0.16-1.643,0.258-2.51,0.258      c-1.031,0-1.932-0.193-2.769-0.547c-0.837-0.387-1.546-0.87-2.126-1.545c-0.578-0.644-1.061-1.417-1.383-2.318      s-0.482-1.867-0.482-2.929c0-0.998,0.16-1.898,0.482-2.769C93.92,6.63,94.37,5.89,94.98,5.246      c0.58-0.644,1.32-1.126,2.126-1.512c0.837-0.354,1.737-0.548,2.769-0.548c0.996,0,1.963,0.161,2.863,0.515      c0.901,0.322,1.674,0.804,2.285,1.417l2.607-2.607c-1.03-0.934-2.221-1.577-3.541-1.932      C102.707,0.258,101.322,0.064,99.81,0.064L99.81,0.064z"></path>
				</g>
				<g id="g297_9_">
					<path id="path295_9_" fill="#FFFFFF" d="M126.492,0.064h-13.551v20.728h13.551v-3.476H116.45v-5.311h9.044V8.819h-9.044V3.508      h10.042V0.064z"></path>
				</g>
				<g id="g301_9_">
					<path id="path299_9_" fill="#FFFFFF" d="M167.4,0.064h-2.479l-9.043,20.728h3.668l1.964-4.537h9.237l1.964,4.537h3.669      L167.4,0.064z M162.927,13.067l3.219-7.37l3.22,7.37H162.927z"></path>
				</g>
				<g id="g307_9_">
					<g id="g305_9_">
						<path id="path303_9_" fill="#FFFFFF" d="M152.691,0.064h-5.439l0,0h-0.16l-4.346,12.456l-0.676,1.835l-1.03-2.833       l-3.991-11.458h-0.16l0,0h-5.439v20.728h3.508V3.895h0.064l1.385,3.927l4.312,12.359l0,0l0.225,0.611h1.159h1.159l5.889-16.865       h0.064v16.865h3.477V0.064z"></path>
					</g>
				</g>
			</g>
		</g>
	</g>
</svg>
