<?xml version="1.0" encoding="UTF-8"?>
<!-- Generator: Adobe Illustrator 16.0.0, SVG Export Plug-In . SVG Version: 6.00 Build 0)  -->
<svg xmlns="http://www.w3.org/2000/svg" 
	xmlns:xlink="http://www.w3.org/1999/xlink" id="Layer_1" x="0px" y="0px" width="35.082px" height="35.116px" viewBox="0 0 35.082 35.116" xml:space="preserve">
	<g id="g313_9_">
		<g id="g231_9_">

			<linearGradient id="path29_1_" gradientUnits="userSpaceOnUse" x1="43.7031" y1="757.217" x2="18.7259" y2="782.1942" gradientTransform="matrix(1 0 0 1 -16.7197 -755.9395)">
				<stop offset="0" style="stop-color:#0DE1EB"></stop>
				<stop offset="0.04" style="stop-color:#15CFEE"></stop>
				<stop offset="0.1424" style="stop-color:#25A7F4"></stop>
				<stop offset="0.2432" style="stop-color:#3388F9"></stop>
				<stop offset="0.3404" style="stop-color:#3C71FC"></stop>
				<stop offset="0.4328" style="stop-color:#4264FE"></stop>
				<stop offset="0.5149" style="stop-color:#445FFF"></stop>
				<stop offset="0.5945" style="stop-color:#4059EE"></stop>
				<stop offset="0.7513" style="stop-color:#3548C3"></stop>
				<stop offset="0.9687" style="stop-color:#242D7E"></stop>
				<stop offset="1" style="stop-color:#212973"></stop>
			</linearGradient>
			<path id="path29_9_" fill="url(#path29_1_)" d="M26.168,2.317c-0.098-0.063-0.193-0.096-0.29-0.159    c0.063,0.03,0.128,0.063,0.192,0.096C26.07,2.317,26.104,2.317,26.168,2.317z"></path>

			<linearGradient id="path54_1_" gradientUnits="userSpaceOnUse" x1="39.3164" y1="752.8469" x2="14.5152" y2="777.6481" gradientTransform="matrix(1 0 0 1 -16.7197 -755.9395)">
				<stop offset="0" style="stop-color:#0DE1EB"></stop>
				<stop offset="0.04" style="stop-color:#15CFEE"></stop>
				<stop offset="0.1424" style="stop-color:#25A7F4"></stop>
				<stop offset="0.2432" style="stop-color:#3388F9"></stop>
				<stop offset="0.3404" style="stop-color:#3C71FC"></stop>
				<stop offset="0.4328" style="stop-color:#4264FE"></stop>
				<stop offset="0.5149" style="stop-color:#445FFF"></stop>
				<stop offset="0.5945" style="stop-color:#4059EE"></stop>
				<stop offset="0.7513" style="stop-color:#3548C3"></stop>
				<stop offset="0.9687" style="stop-color:#242D7E"></stop>
				<stop offset="1" style="stop-color:#212973"></stop>
			</linearGradient>
			<path id="path54_9_" fill="url(#path54_1_)" d="M7.66,3.025c6.855-2.606,13.68-2.542,18.378-0.739    c-0.063-0.032-0.128-0.064-0.192-0.098c-0.482-0.257-0.966-0.514-1.448-0.708c-0.128-0.063-0.29-0.128-0.419-0.192    c-0.579-0.226-1.158-0.418-1.77-0.611c-0.129-0.032-0.29-0.064-0.42-0.097c-0.611-0.161-1.223-0.29-1.865-0.387    c-0.064,0-0.129-0.031-0.193-0.031C18.99,0.064,18.25,0,17.478,0C13.84,0,10.461,1.126,7.66,3.025z"></path>

			<linearGradient id="path79_1_" gradientUnits="userSpaceOnUse" x1="55.1177" y1="768.1057" x2="28.3933" y2="794.8301" gradientTransform="matrix(1 0 0 1 -16.7197 -755.9395)">
				<stop offset="0" style="stop-color:#0DE1EB"></stop>
				<stop offset="0.04" style="stop-color:#15CFEE"></stop>
				<stop offset="0.1424" style="stop-color:#25A7F4"></stop>
				<stop offset="0.2432" style="stop-color:#3388F9"></stop>
				<stop offset="0.3404" style="stop-color:#3C71FC"></stop>
				<stop offset="0.4328" style="stop-color:#4264FE"></stop>
				<stop offset="0.5149" style="stop-color:#445FFF"></stop>
				<stop offset="0.5945" style="stop-color:#4059EE"></stop>
				<stop offset="0.7513" style="stop-color:#3548C3"></stop>
				<stop offset="0.9687" style="stop-color:#242D7E"></stop>
				<stop offset="1" style="stop-color:#212973"></stop>
			</linearGradient>
			<path id="path79_9_" fill="url(#path79_1_)" d="M32.733,8.916c0.063,0.161,0.128,0.354,0.193,0.547    c1.577,4.505,1.642,10.782-0.612,17.187c-0.096,0.258-0.16,0.516-0.256,0.772c1.898-2.801,3.024-6.18,3.024-9.816    C35.051,14.42,34.214,11.491,32.733,8.916z"></path>

			<linearGradient id="path104_1_" gradientUnits="userSpaceOnUse" x1="47.0845" y1="760.6252" x2="22.2894" y2="785.4203" gradientTransform="matrix(1 0 0 1 -16.7197 -755.9395)">
				<stop offset="0" style="stop-color:#0DE1EB"></stop>
				<stop offset="0.04" style="stop-color:#15CFEE"></stop>
				<stop offset="0.1424" style="stop-color:#25A7F4"></stop>
				<stop offset="0.2432" style="stop-color:#3388F9"></stop>
				<stop offset="0.3404" style="stop-color:#3C71FC"></stop>
				<stop offset="0.4328" style="stop-color:#4264FE"></stop>
				<stop offset="0.5149" style="stop-color:#445FFF"></stop>
				<stop offset="0.5945" style="stop-color:#4059EE"></stop>
				<stop offset="0.7513" style="stop-color:#3548C3"></stop>
				<stop offset="0.9687" style="stop-color:#242D7E"></stop>
				<stop offset="1" style="stop-color:#212973"></stop>
			</linearGradient>
			<path id="path104_9_" fill="url(#path104_1_)" d="M12.938,22.177C12.938,22.145,12.938,22.145,12.938,22.177    c-0.032-0.032-0.032-0.032-0.032-0.032c-2.671-2.672-7.562-2.285-11.587,0.708c-0.064,0.031-0.097,0.064-0.161,0.098    c0,0-0.289,0.226-0.193,0.578c0.033,0.032,0.064,0.13,0.098,0.193c3.347-2.639,7.789-2.801,10.396-0.193l0.032,0.032l0.033,0.032    c2.606,2.607,2.445,7.016-0.162,10.363l-0.031,0.033c0.063,0.031,0.16,0.062,0.225,0.062c0.033,0,0.097,0,0.129,0    c0.258,0,0.449-0.192,0.449-0.192c0.034-0.063,0.065-0.097,0.098-0.16C15.225,29.708,15.643,24.849,12.938,22.177z"></path>

			<linearGradient id="path129_1_" gradientUnits="userSpaceOnUse" x1="47.1406" y1="760.6672" x2="22.3365" y2="785.4714" gradientTransform="matrix(1 0 0 1 -16.7197 -755.9395)">
				<stop offset="0" style="stop-color:#0DE1EB"></stop>
				<stop offset="0.04" style="stop-color:#15CFEE"></stop>
				<stop offset="0.1424" style="stop-color:#25A7F4"></stop>
				<stop offset="0.2432" style="stop-color:#3388F9"></stop>
				<stop offset="0.3404" style="stop-color:#3C71FC"></stop>
				<stop offset="0.4328" style="stop-color:#4264FE"></stop>
				<stop offset="0.5149" style="stop-color:#445FFF"></stop>
				<stop offset="0.5945" style="stop-color:#4059EE"></stop>
				<stop offset="0.7513" style="stop-color:#3548C3"></stop>
				<stop offset="0.9687" style="stop-color:#242D7E"></stop>
				<stop offset="1" style="stop-color:#212973"></stop>
			</linearGradient>
			<path id="path129_9_" fill="url(#path129_1_)" d="M19.055,16.062C19.055,16.062,19.055,16.028,19.055,16.062    c-0.032-0.033-0.032-0.033-0.032-0.033c-3.992-4.021-11.845-2.863-18.733,2.286C0.097,18.442,0,18.701,0,18.925    c0,0.096,0.031,0.226,0.031,0.322c6.084-4.603,13.357-5.375,17.252-1.479c0,0,0,0,0.033,0.032c0,0,0,0,0.031,0.032    c3.863,3.862,3.123,11.104-1.416,17.155c-0.032,0.032-0.032,0.063-0.063,0.097c0.097,0,0.226,0.032,0.321,0.032    c0.129,0,0.258-0.032,0.387-0.064c0.096-0.031,0.192-0.097,0.257-0.192C21.919,27.873,23.045,20.053,19.055,16.062z"></path>

			<linearGradient id="path154_1_" gradientUnits="userSpaceOnUse" x1="47.105" y1="760.6321" x2="22.3027" y2="785.4344" gradientTransform="matrix(1 0 0 1 -16.7197 -755.9395)">
				<stop offset="0" style="stop-color:#0DE1EB"></stop>
				<stop offset="0.04" style="stop-color:#15CFEE"></stop>
				<stop offset="0.1424" style="stop-color:#25A7F4"></stop>
				<stop offset="0.2432" style="stop-color:#3388F9"></stop>
				<stop offset="0.3404" style="stop-color:#3C71FC"></stop>
				<stop offset="0.4328" style="stop-color:#4264FE"></stop>
				<stop offset="0.5149" style="stop-color:#445FFF"></stop>
				<stop offset="0.5945" style="stop-color:#4059EE"></stop>
				<stop offset="0.7513" style="stop-color:#3548C3"></stop>
				<stop offset="0.9687" style="stop-color:#242D7E"></stop>
				<stop offset="1" style="stop-color:#212973"></stop>
			</linearGradient>
			<path id="path154_9_" fill="url(#path154_1_)" d="M24.43,10.686L24.43,10.686c-0.032-0.032-0.032-0.032-0.032-0.032    c-4.893-4.892-14.42-3.636-23.464,2.318c-0.033,0.032-0.064,0.032-0.098,0.064c-0.418,0.258-0.482,0.644-0.482,0.644    c-0.064,0.258-0.096,0.516-0.16,0.773c8.367-5.666,17.509-6.728,22.305-1.932c0,0,0,0,0.032,0.032c0,0,0,0,0.032,0.032    c4.764,4.764,3.766,13.84-1.835,22.145c-0.032,0.064-0.064,0.097-0.097,0.161c0.258-0.032,0.516-0.097,0.773-0.161    c0,0,0.225-0.032,0.449-0.258c0.065-0.063,0.13-0.129,0.162-0.192c0.031-0.032,0.031-0.064,0.064-0.097    C28.066,25.105,29.289,15.546,24.43,10.686z"></path>

			<linearGradient id="path179_1_" gradientUnits="userSpaceOnUse" x1="51.4927" y1="760.5305" x2="24.473" y2="787.5503" gradientTransform="matrix(1 0 0 1 -16.7197 -755.9395)">
				<stop offset="0" style="stop-color:#0DE1EB"></stop>
				<stop offset="0.04" style="stop-color:#15CFEE"></stop>
				<stop offset="0.1424" style="stop-color:#25A7F4"></stop>
				<stop offset="0.2432" style="stop-color:#3388F9"></stop>
				<stop offset="0.3404" style="stop-color:#3C71FC"></stop>
				<stop offset="0.4328" style="stop-color:#4264FE"></stop>
				<stop offset="0.5149" style="stop-color:#445FFF"></stop>
				<stop offset="0.5945" style="stop-color:#4059EE"></stop>
				<stop offset="0.7513" style="stop-color:#3548C3"></stop>
				<stop offset="0.9687" style="stop-color:#242D7E"></stop>
				<stop offset="1" style="stop-color:#212973"></stop>
			</linearGradient>
			<path id="path179_9_" fill="url(#path179_1_)" d="M7.402,31.929c0.033,0,0.033,0.032,0.033,0.032L7.402,31.929L7.402,31.929z"></path>

			<linearGradient id="path204_1_" gradientUnits="userSpaceOnUse" x1="47.1045" y1="760.6233" x2="22.2981" y2="785.4297" gradientTransform="matrix(1 0 0 1 -16.7197 -755.9395)">
				<stop offset="0" style="stop-color:#0DE1EB"></stop>
				<stop offset="0.04" style="stop-color:#15CFEE"></stop>
				<stop offset="0.1424" style="stop-color:#25A7F4"></stop>
				<stop offset="0.2432" style="stop-color:#3388F9"></stop>
				<stop offset="0.3404" style="stop-color:#3C71FC"></stop>
				<stop offset="0.4328" style="stop-color:#4264FE"></stop>
				<stop offset="0.5149" style="stop-color:#445FFF"></stop>
				<stop offset="0.5945" style="stop-color:#4059EE"></stop>
				<stop offset="0.7513" style="stop-color:#3548C3"></stop>
				<stop offset="0.9687" style="stop-color:#242D7E"></stop>
				<stop offset="1" style="stop-color:#212973"></stop>
			</linearGradient>
			<path id="path204_9_" fill="url(#path204_1_)" d="M7.95,31.833C7.95,31.8,7.95,31.833,7.95,31.833    c0.482-1.03,0.097-2.513-1.03-3.639l-0.031-0.031c-1.128-1.127-2.607-1.514-3.639-1.03c-0.031,0,0,0-0.031,0    c-0.321,0.161-0.193,0.419-0.193,0.419c0.032,0.064,0.032,0.097,0.097,0.128c0,0,0.032,0,0.032-0.031    c0.482-0.257,1.705,0.321,2.768,1.416l0.033,0.032c1.094,1.094,1.705,2.285,1.416,2.769c0,0,0,0,0,0.031l0.031,0.032    c0.033,0.032,0.064,0.032,0.098,0.064C7.531,32.025,7.788,32.154,7.95,31.833z"></path>

			<linearGradient id="path229_1_" gradientUnits="userSpaceOnUse" x1="47.1968" y1="760.7249" x2="22.3947" y2="785.527" gradientTransform="matrix(1 0 0 1 -16.7197 -755.9395)">
				<stop offset="0" style="stop-color:#0DE1EB"></stop>
				<stop offset="0.04" style="stop-color:#15CFEE"></stop>
				<stop offset="0.1424" style="stop-color:#25A7F4"></stop>
				<stop offset="0.2432" style="stop-color:#3388F9"></stop>
				<stop offset="0.3404" style="stop-color:#3C71FC"></stop>
				<stop offset="0.4328" style="stop-color:#4264FE"></stop>
				<stop offset="0.5149" style="stop-color:#445FFF"></stop>
				<stop offset="0.5945" style="stop-color:#4059EE"></stop>
				<stop offset="0.7513" style="stop-color:#3548C3"></stop>
				<stop offset="0.9687" style="stop-color:#242D7E"></stop>
				<stop offset="1" style="stop-color:#212973"></stop>
			</linearGradient>
			<path id="path229_9_" fill="url(#path229_1_)" d="M32.637,15.32c0-0.096,0-0.226,0-0.32c0-0.129,0-0.289-0.031-0.419    c0-0.128-0.033-0.226-0.033-0.321c0-0.13-0.032-0.258-0.032-0.387c0-0.098-0.031-0.227-0.031-0.321    c-0.032-0.129-0.032-0.258-0.065-0.386c-0.032-0.098-0.032-0.226-0.064-0.322c-0.031-0.129-0.031-0.258-0.064-0.387    c-0.031-0.098-0.031-0.193-0.064-0.322c-0.031-0.128-0.063-0.257-0.096-0.386c-0.032-0.098-0.032-0.193-0.064-0.29    c-0.031-0.129-0.097-0.29-0.129-0.418c-0.033-0.064-0.033-0.161-0.064-0.227c-0.064-0.225-0.129-0.418-0.225-0.644    c-0.033-0.032-0.033-0.097-0.064-0.128c-0.064-0.161-0.129-0.322-0.194-0.483c-0.032-0.063-0.063-0.161-0.097-0.226    c-0.063-0.129-0.128-0.257-0.193-0.386c-0.031-0.064-0.096-0.162-0.128-0.226c-0.064-0.129-0.129-0.226-0.192-0.354    c-0.033-0.065-0.098-0.161-0.129-0.227c-0.064-0.097-0.129-0.226-0.226-0.322c-0.065-0.063-0.097-0.16-0.161-0.225    c-0.064-0.097-0.161-0.225-0.227-0.322c-0.062-0.063-0.096-0.129-0.16-0.192c-0.096-0.129-0.192-0.227-0.289-0.354    c-0.032-0.064-0.098-0.098-0.129-0.161c-0.16-0.162-0.29-0.321-0.451-0.482c0,0,0,0-0.031-0.032c0,0,0,0-0.033-0.031    c-0.16-0.161-0.32-0.29-0.482-0.451c-0.064-0.032-0.096-0.097-0.16-0.13c-0.098-0.096-0.226-0.192-0.354-0.289    c-0.064-0.063-0.128-0.097-0.192-0.161c-0.098-0.063-0.226-0.16-0.322-0.226c-0.064-0.063-0.161-0.096-0.227-0.161    c-0.096-0.063-0.225-0.128-0.32-0.226c-0.064-0.032-0.161-0.097-0.227-0.128c-0.128-0.064-0.225-0.129-0.354-0.193    c-0.064-0.032-0.16-0.097-0.225-0.129c-0.129-0.064-0.258-0.129-0.388-0.192c-0.063-0.032-0.16-0.063-0.225-0.098    c-0.161-0.064-0.322-0.129-0.483-0.193c-0.031-0.031-0.096-0.031-0.128-0.062c-0.194-0.064-0.419-0.161-0.644-0.227    c-0.064-0.031-0.161-0.031-0.226-0.063c-0.097-0.032-0.226-0.064-0.386-0.097c-0.098-0.032-0.193-0.064-0.29-0.064    c-0.128-0.032-0.258-0.063-0.386-0.096C22.855,2.8,22.759,2.8,22.63,2.768s-0.258-0.064-0.387-0.064    c-0.097-0.031-0.225-0.031-0.321-0.064c-0.13-0.032-0.258-0.032-0.386-0.063c-0.098,0-0.227-0.033-0.322-0.033    c-0.129,0-0.258-0.031-0.387-0.031c-0.097,0-0.225-0.032-0.321-0.032c-0.128,0-0.29,0-0.419-0.033c-0.097,0-0.225,0-0.322,0    c-0.225,0-0.482,0-0.707,0c-0.129,0-0.258,0-0.354,0c-0.128,0-0.258,0-0.387,0c-0.128,0-0.257,0-0.387,0.033    c-0.128,0-0.257,0-0.385,0.032c-0.13,0-0.29,0.031-0.419,0.031s-0.258,0.033-0.354,0.033c-0.129,0-0.29,0.031-0.419,0.063    c-0.128,0-0.256,0.033-0.354,0.064c-0.16,0.032-0.289,0.032-0.45,0.064C15.421,2.8,15.323,2.8,15.195,2.832    c-0.161,0.032-0.322,0.063-0.45,0.096c-0.097,0.033-0.226,0.033-0.321,0.064c-0.612,0.129-1.223,0.258-1.836,0.418    c-0.096,0.031-0.192,0.064-0.289,0.064c-0.162,0.031-0.354,0.096-0.515,0.16c-0.097,0.033-0.226,0.065-0.322,0.098    c-0.161,0.063-0.354,0.097-0.515,0.16c-0.097,0.032-0.225,0.064-0.322,0.098c-0.16,0.063-0.354,0.129-0.516,0.16    c-0.096,0.032-0.225,0.064-0.32,0.128C9.623,4.345,9.431,4.41,9.27,4.474C9.173,4.506,9.044,4.571,8.947,4.603    C8.754,4.668,8.594,4.731,8.4,4.828C8.304,4.86,8.207,4.925,8.11,4.956C7.918,5.021,7.725,5.118,7.531,5.214l0,0    C6.309,5.729,5.086,6.341,3.862,7.018c0,0-0.516,0.289-0.837,0.805C2.672,8.144,2.414,8.529,2.188,8.916    c1.771-0.998,3.508-1.835,5.247-2.511C7.627,6.341,7.822,6.244,8.014,6.18C8.078,6.148,8.143,6.116,8.24,6.116    c0.192-0.065,0.386-0.13,0.547-0.193c0.064-0.033,0.16-0.064,0.225-0.064C9.205,5.795,9.399,5.73,9.559,5.666    C9.623,5.633,9.688,5.633,9.752,5.6c0.611-0.191,1.223-0.354,1.836-0.514c0.063,0,0.129-0.032,0.192-0.032    c0.161-0.033,0.353-0.063,0.515-0.129c0.097-0.033,0.16-0.033,0.258-0.064c0.161-0.031,0.322-0.063,0.515-0.097    c0.097,0,0.161-0.032,0.258-0.032c0.16-0.031,0.321-0.062,0.515-0.097c0.064,0,0.129-0.032,0.193-0.032    c0.322-0.03,0.676-0.097,0.997-0.128c0.065,0,0.161-0.033,0.226-0.033c0.162,0,0.29-0.03,0.451-0.03c0.096,0,0.192,0,0.322-0.033    c0.129,0,0.289,0,0.418-0.032c0.096,0,0.225,0,0.321,0c0.13,0,0.259,0,0.387,0c0.128,0,0.225,0,0.354,0c0.13,0,0.258,0,0.387,0    c0.226,0,0.45,0.032,0.644,0.032c0.097,0,0.226,0.033,0.322,0.033c0.129,0,0.258,0.03,0.386,0.03c0.097,0,0.226,0.033,0.322,0.033    c0.128,0.032,0.257,0.032,0.354,0.064c0.096,0.033,0.225,0.033,0.32,0.063c0.131,0.032,0.259,0.032,0.387,0.065    c0.097,0.031,0.193,0.031,0.291,0.062c0.16,0.032,0.321,0.064,0.514,0.129c0.098,0.032,0.161,0.032,0.258,0.064    c0.16,0.063,0.354,0.096,0.516,0.161c0.062,0.032,0.16,0.063,0.225,0.096c0.129,0.033,0.258,0.097,0.387,0.129    c0.097,0.032,0.16,0.065,0.257,0.098c0.13,0.063,0.258,0.096,0.387,0.16c0.063,0.031,0.161,0.064,0.225,0.097    c0.13,0.063,0.29,0.129,0.419,0.192c0.064,0.031,0.097,0.064,0.162,0.097c0.191,0.097,0.385,0.193,0.547,0.321    c0.031,0.032,0.096,0.064,0.128,0.098c0.128,0.097,0.257,0.161,0.386,0.257c0.064,0.032,0.129,0.098,0.193,0.129    c0.129,0.097,0.227,0.161,0.354,0.259c0.063,0.031,0.128,0.096,0.192,0.128c0.129,0.097,0.227,0.192,0.354,0.29    c0.063,0.032,0.097,0.097,0.161,0.129c0.161,0.128,0.322,0.289,0.482,0.45c0,0,0,0,0.033,0.032c0,0,0,0,0.031,0.031    c0.161,0.16,0.289,0.321,0.45,0.482c0.033,0.064,0.097,0.098,0.13,0.161c0.096,0.097,0.192,0.225,0.289,0.354    c0.064,0.062,0.097,0.128,0.129,0.192c0.096,0.097,0.161,0.226,0.258,0.354c0.031,0.063,0.096,0.128,0.128,0.192    c0.097,0.128,0.161,0.258,0.258,0.387c0.032,0.031,0.064,0.097,0.097,0.128c0.096,0.193,0.225,0.354,0.321,0.548    c0.032,0.064,0.065,0.097,0.097,0.161c0.064,0.129,0.129,0.289,0.193,0.418c0.031,0.063,0.064,0.161,0.097,0.225    c0.065,0.129,0.097,0.258,0.161,0.386c0.032,0.098,0.064,0.161,0.096,0.258c0.064,0.129,0.097,0.258,0.129,0.387    c0.033,0.063,0.064,0.16,0.096,0.226c0.065,0.16,0.098,0.354,0.162,0.516c0.032,0.097,0.032,0.16,0.064,0.257    c0.032,0.161,0.096,0.322,0.129,0.515c0.032,0.096,0.032,0.193,0.064,0.289c0.031,0.129,0.064,0.258,0.064,0.387    c0.031,0.098,0.031,0.226,0.064,0.322c0.031,0.129,0.031,0.257,0.064,0.354c0,0.097,0.031,0.226,0.031,0.321    c0,0.128,0.033,0.259,0.033,0.387c0,0.097,0.031,0.226,0.031,0.321c0,0.227,0.033,0.418,0.033,0.645c0,0.129,0,0.257,0,0.386    s0,0.225,0,0.354c0,0.129,0,0.258,0,0.386c0,0.096,0,0.225,0,0.323c0,0.128,0,0.288-0.033,0.418c0,0.097,0,0.191-0.031,0.32    c0,0.162-0.033,0.29-0.033,0.451c0,0.064,0,0.161-0.031,0.226c-0.033,0.321-0.064,0.645-0.129,0.997    c0,0.064-0.033,0.13-0.033,0.193c-0.031,0.161-0.063,0.322-0.096,0.515c0,0.098-0.033,0.161-0.033,0.258    c-0.031,0.162-0.063,0.322-0.096,0.516c-0.032,0.097-0.032,0.162-0.064,0.258c-0.031,0.16-0.064,0.354-0.128,0.516    c0,0.063-0.034,0.129-0.034,0.192c-0.16,0.611-0.32,1.225-0.514,1.835c-0.033,0.063-0.033,0.129-0.064,0.193    c-0.064,0.19-0.129,0.386-0.193,0.547c-0.031,0.064-0.064,0.16-0.064,0.225c-0.063,0.193-0.129,0.388-0.193,0.548    c-0.031,0.064-0.064,0.129-0.064,0.226c-0.064,0.193-0.16,0.387-0.225,0.579c-0.644,1.642-1.416,3.283-2.35,4.957    c-0.064,0.098-0.096,0.226-0.161,0.322c0.386-0.226,0.772-0.45,1.159-0.708c0.515-0.322,0.805-0.838,0.805-0.838l0,0    c0.676-1.223,1.256-2.445,1.803-3.67l0,0c0.097-0.191,0.16-0.385,0.257-0.577c0.032-0.099,0.097-0.193,0.128-0.291    c0.065-0.193,0.129-0.354,0.227-0.548c0.031-0.097,0.096-0.225,0.129-0.32c0.064-0.161,0.128-0.354,0.192-0.516    c0.032-0.098,0.097-0.226,0.13-0.321c0.062-0.161,0.128-0.354,0.16-0.517c0.032-0.096,0.064-0.225,0.096-0.32    c0.064-0.161,0.097-0.354,0.162-0.516c0.031-0.098,0.064-0.226,0.096-0.322c0.064-0.16,0.098-0.354,0.161-0.516    c0.032-0.096,0.064-0.193,0.064-0.289c0.161-0.611,0.322-1.223,0.419-1.834c0.031-0.098,0.031-0.226,0.064-0.322    c0.031-0.16,0.064-0.321,0.096-0.45c0.032-0.13,0.032-0.226,0.064-0.354c0.033-0.16,0.033-0.29,0.065-0.451    c0.031-0.129,0.031-0.257,0.063-0.354c0.033-0.129,0.033-0.29,0.064-0.418c0-0.128,0.032-0.257,0.032-0.354    c0-0.129,0.032-0.29,0.032-0.418c0-0.129,0.032-0.259,0.032-0.387c0-0.129,0.032-0.258,0.032-0.387c0-0.128,0-0.258,0-0.387    s0-0.258,0-0.354C32.637,15.804,32.637,15.546,32.637,15.32z"></path>
		</g>
	</g>
</svg>
